<!-- icon666.com - MILLIONS vector ICONS FREE --><svg version="1.1" id="Capa_1" xmlns="http://www.w3.org/2000/svg" xmlns:xlink="http://www.w3.org/1999/xlink" x="0px" y="0px" viewBox="0 0 457.353 457.353" style="enable-background:new 0 0 457.353 457.353;" xml:space="preserve"><path style="fill:#6097FF;" d="M52.868,259.12H9.13c0,0-2.985-13.404,5.518-16.02s21.587-5.233,21.587-5.233 s-18.412-22.241,16.632-35.324s135.782-8.722,135.782-8.722s39.248-29.436,62.798-30.745c23.549-1.308,84.384,0.218,128.212,26.384 l18.316-8.94l4.579-12.176l50.369-3.087c0,0-4.579,22.895-37.286,22.895l-23.549,21.874c0,0,9.158,18.377,8.504,36.192 c0,0,17.662,0.508,18.316,12.903H52.868V259.12z"></path><path style="fill:#545B78;" d="M418.908,263.55H9.13c-2.076,0-3.874-1.441-4.325-3.468c-1.439-6.462-1.26-18.203,8.541-21.218 c4.965-1.527,11.338-3.032,15.952-4.054c-1.781-3.959-3.251-9.551-1.624-15.643c2.352-8.807,10.307-15.797,23.643-20.775 c33.479-12.498,122.532-9.579,135.956-9.061c7.161-5.219,41.504-29.433,63.927-30.678c7.897-0.44,77.765-3.383,128.646,25.785 l14.6-7.126l3.959-10.527c0.614-1.635,2.133-2.756,3.876-2.863l50.369-3.087c1.369-0.077,2.707,0.474,3.61,1.51 c0.905,1.036,1.276,2.433,1.007,3.781c-0.053,0.261-5.522,25.595-39.867,26.436l-19.957,18.536 c2.404,5.59,7.096,18.054,7.572,31.137c7.695,1.331,17.744,5.821,18.316,16.651c0.063,1.213-0.374,2.4-1.211,3.283 C421.286,263.051,420.123,263.55,418.908,263.55z M13.076,254.689H412.25c-3.937-3.687-11.684-4.04-11.787-4.043 c-1.181-0.034-2.299-0.538-3.106-1.4c-0.808-0.863-1.238-2.011-1.194-3.192c0.607-16.495-7.955-33.878-8.041-34.052 c-0.877-1.759-0.49-3.886,0.95-5.223l23.55-21.874c0.819-0.762,1.897-1.185,3.015-1.185c18.467,0,26.787-7.902,30.385-13.602 l-40.332,2.472l-3.568,9.489c-0.398,1.059-1.187,1.926-2.204,2.422l-18.315,8.94c-1.345,0.655-2.931,0.589-4.214-0.177 c-48.772-29.117-117.964-26.194-125.694-25.764c-21.933,1.218-60.004,29.579-60.386,29.866c-0.82,0.614-1.841,0.928-2.85,0.881 c-1-0.042-100.239-4.173-134.042,8.446c-10.347,3.863-16.634,8.966-18.181,14.76c-1.86,6.962,3.359,13.523,3.412,13.587 c0.995,1.201,1.284,2.837,0.762,4.307c-0.521,1.47-1.777,2.558-3.306,2.863c-0.129,0.026-12.966,2.604-21.153,5.123 C13.35,248.135,12.963,251.833,13.076,254.689z"></path><path style="fill:#61CAFF;" d="M444.455,171.016l-38.196,2.341l-4.119,10.957l-22.731,11.09l-2.433-1.451 c-48.575-28.997-117.556-26.084-125.237-25.655c-18.02,1.002-49.383,21.786-59.951,29.707l-1.492,1.124l-1.87-0.082 c-1.002-0.036-100.073-4.16-133.726,8.396c-8.514,3.179-14.038,7.017-16.512,11.447l351.928,0.005 c-1.487-4.001-2.714-6.541-2.734-6.582l-1.692-3.485l27.893-25.91h2.054C432.358,182.919,440.551,176.377,444.455,171.016z"></path><path style="fill:#E6E7E8;" d="M410.832,298.988H13.737C6.182,298.988,0,292.806,0,285.251l0,0c0-7.555,6.182-13.737,13.737-13.737 h397.095c7.555,0,13.737,6.182,13.737,13.737l0,0C424.569,292.806,418.387,298.988,410.832,298.988z"></path><circle style="fill:#FFFFFF;" cx="86.68" cy="246.219" r="36.19"></circle><path style="fill:#545B78;" d="M86.677,286.839c-22.399,0-40.622-18.223-40.622-40.622s18.223-40.622,40.622-40.622 s40.622,18.223,40.622,40.622S109.076,286.839,86.677,286.839z M86.677,214.457c-17.513,0-31.761,14.248-31.761,31.761 s14.248,31.761,31.761,31.761s31.761-14.248,31.761-31.761S104.19,214.457,86.677,214.457z"></path><circle style="fill:#FFFFFF;" cx="334.06" cy="246.219" r="36.19"></circle><g><path style="fill:#545B78;" d="M334.06,286.839c-22.4,0-40.623-18.223-40.623-40.622s18.223-40.622,40.623-40.622 c22.399,0,40.622,18.223,40.622,40.622S356.459,286.839,334.06,286.839z M334.06,214.457c-17.513,0-31.762,14.248-31.762,31.761 s14.248,31.761,31.762,31.761c17.512,0,31.761-14.248,31.761-31.761S351.572,214.457,334.06,214.457z"></path><circle style="fill:#545B78;" cx="86.68" cy="246.219" r="12.898"></circle><circle style="fill:#545B78;" cx="334.06" cy="246.219" r="12.898"></circle></g><path style="fill:#D9F1FC;" d="M304.16,183.453c-16.713-2.411-31.344-2.886-40.054-2.886c-4.461,0-8.351,0.112-11.499,0.291 c-8.317,0.463-23.81,8.519-37.058,16.849h100.004L304.16,183.453z"></path><g><path style="fill:#545B78;" d="M315.554,202.138H215.55c-1.975,0-3.711-1.306-4.257-3.203c-0.547-1.897,0.227-3.927,1.899-4.978 c9.998-6.286,28.38-16.922,39.17-17.522c3.432-0.195,7.495-0.298,11.745-0.298c9.292,0,23.894,0.509,40.687,2.931 c1.114,0.161,2.125,0.74,2.828,1.619l11.393,14.254c1.063,1.33,1.27,3.152,0.533,4.687 C318.809,201.162,317.257,202.138,315.554,202.138z M231.982,193.277h74.359l-4.541-5.682c-15.544-2.138-29.011-2.597-37.692-2.597 c-4.086,0-7.975,0.098-11.248,0.284C248.633,185.518,241.135,188.432,231.982,193.277z"></path><path style="fill:#545B78;" d="M271.508,245.978H122.534v-8.862h146.742l21.348-28.818l7.121,5.275l-22.677,30.611 C274.233,245.312,272.911,245.978,271.508,245.978z"></path></g></svg>